<?xml version="1.0" encoding="utf-8"?>
<!-- Generator: Adobe Illustrator 18.1.1, SVG Export Plug-In . SVG Version: 6.00 Build 0)  -->
<svg version="1.1" id="Layer_1" xmlns="http://www.w3.org/2000/svg" xmlns:xlink="http://www.w3.org/1999/xlink" x="0px" y="0px"
	 viewBox="0 0 24 24" enable-background="new 0 0 24 24" xml:space="preserve">
<g>
	<g id="color_x5F_bg">
		<path fill="#895ECC" d="M12,24L12,24C5.4,24,0,18.6,0,12l0,0C0,5.4,5.4,0,12,0l0,0c6.6,0,12,5.4,12,12l0,0C24,18.6,18.6,24,12,24z
			"/>
	</g>
	<circle fill="#F4C37D" cx="6.3" cy="13.2" r="1.4"/>
	<circle fill="#F4C37D" cx="16.9" cy="13.2" r="1.4"/>
	<path fill="#FFE1A4" d="M15.7,10.8c0.1-0.3,0.1-0.4,0.1-0.7c0-1-0.8-1.9-1.9-1.9s-1.9,0.8-1.9,1.9c0,0.3,0.1,0.6,0.2,0.9H5.8v3.1
		c0,3.2,2.6,5.9,5.9,5.9s5.9-2.6,5.9-5.9V11L15.7,10.8z"/>
	<path fill="#F4C37D" d="M11.6,20c-3.2,0-5.9-2.6-5.9-5.9V11h5.8L11.6,20z"/>
	<path fill="#F44542" d="M13.9,6.3H9.4V5c0-1.3,1.1-2.3,2.3-2.3l0,0c1.3,0,2.3,1.1,2.3,2.3L13.9,6.3L13.9,6.3z"/>
	<path fill="#FF4E4A" d="M12.6,5.3h-1.9c-2.7,0-4.8,2.2-4.8,4.9V11h7c0.3,0,0.6-0.2,0.6-0.6V10c0-0.5,0.7-0.7,1-0.4l1,1.2
		c0.1,0.1,0.3,0.2,0.4,0.2h1.6l0-0.8C17.4,7.5,15.2,5.3,12.6,5.3z"/>
	<circle fill="#FFE1A4" cx="11.6" cy="15.2" r="0.9"/>
	<circle fill="#2A5083" cx="9.6" cy="13.7" r="0.6"/>
	<circle fill="#2A5083" cx="13.7" cy="13.7" r="0.6"/>
	<path fill="#2A5083" d="M11.6,18.5c0.7,0,1.2-0.5,1.4-1c0.1-0.2-0.1-0.5-0.4-0.5h-2.1c-0.2,0-0.5,0.2-0.4,0.5
		C10.4,18.1,11,18.5,11.6,18.5z"/>
	<path fill="#F44542" d="M11.6,5.3h-1c-2.7,0-4.9,2.2-4.9,4.9V11h5.9V5.3z"/>
	<g id="Layer_2">
	</g>
</g>
</svg>
