<?xml version="1.0" encoding="utf-8"?>
<!-- Generator: Adobe Illustrator 18.1.1, SVG Export Plug-In . SVG Version: 6.00 Build 0)  -->
<svg version="1.1" id="Layer_1" xmlns="http://www.w3.org/2000/svg" xmlns:xlink="http://www.w3.org/1999/xlink" x="0px" y="0px"
	 viewBox="0 0 24 24" enable-background="new 0 0 24 24" xml:space="preserve">
<g>
	<g id="color_x5F_bg">
		<path fill="#59AFE1" d="M12,24L12,24C5.4,24,0,18.6,0,12l0,0C0,5.4,5.4,0,12,0l0,0c6.6,0,12,5.4,12,12l0,0C24,18.6,18.6,24,12,24z
			"/>
	</g>
	<g id="Layer_1_1_">
		<g>
			<g>
				<path fill="#2A5083" d="M11.6,3.7c3.5,0,4.4,1.7,4.4,1.7h0.7c1.2,0,2.2,1,2.2,2.2v2.4c0,0.3,0.1,0.7,0.4,0.9l0,0
					c0.4,0.4,0.5,1.1,0.2,1.5l-0.1,0.1c-0.1,0.3-0.2,0.7-0.1,1l0.1,0.1c0.2,0.7-0.4,1.6-1.1,1.6H5.5c-0.7,0-1.3-0.6-1.3-1.3v-0.4
					c0-0.7,0.6-1.3,1.3-1.3l0,0V7.7c0-1.2,1-2.2,2.2-2.2h0.7C8.4,5.5,9.7,3.7,11.6,3.7z"/>
				<path fill="#F4C37D" d="M10.6,8.5L10.6,8.5c-2,0-3.7,1.7-3.7,3.7v2.5c0,3,2.3,5.5,5.3,5.6c3.1,0.1,5.6-2.4,5.6-5.4V13
					c0-0.4-0.3-0.7-0.6-0.7c-2.6-0.3-4.4-1.9-5.5-3.2C11.4,8.6,11,8.5,10.6,8.5z"/>
				<g>
					<circle fill="#2A5083" cx="9.9" cy="13.6" r="0.7"/>
					<circle fill="#2A5083" cx="14.8" cy="13.6" r="0.7"/>
				</g>
				<path fill="#2A5083" d="M10.3,17.8c0.4,0.7,1.1,1.2,2,1.2c0.9,0,1.6-0.5,2-1.2H10.3z"/>
				<path fill="#FFFFFF" d="M14.4,17.5c0.1-0.4-0.2-0.7-0.6-0.7h-3.1c-0.4,0-0.7,0.4-0.6,0.7c0,0.1,0.1,0.2,0.1,0.3h4
					C14.3,17.7,14.4,17.6,14.4,17.5z"/>
			</g>
			<path fill="#FFE1A4" d="M12.4,14.3c-0.7,0-1.3,0.5-1.3,1.3h2.5C13.6,14.9,13.1,14.3,12.4,14.3z"/>
			<circle fill="#F4C37D" cx="17.9" cy="15.4" r="1.1"/>
			<circle fill="#F4C37D" cx="6.9" cy="15.4" r="1.1"/>
		</g>
	</g>
	<g id="Layer_2">
	</g>
</g>
</svg>
