<?xml version="1.0" encoding="utf-8"?>
<!-- Generator: Adobe Illustrator 18.1.1, SVG Export Plug-In . SVG Version: 6.00 Build 0)  -->
<svg version="1.1" id="Layer_1" xmlns="http://www.w3.org/2000/svg" xmlns:xlink="http://www.w3.org/1999/xlink" x="0px" y="0px"
	 viewBox="0 0 24 24" enable-background="new 0 0 24 24" xml:space="preserve">
<g id="color_x5F_bg">
	<path fill="#FF4E4A" d="M12,24L12,24C5.4,24,0,18.6,0,12l0,0C0,5.4,5.4,0,12,0l0,0c6.6,0,12,5.4,12,12l0,0C24,18.6,18.6,24,12,24z"
		/>
</g>
<g id="Layer_1_1_">
	<g>
		<path fill="#FFFFFF" d="M8.8,13.8H4.5V9.7c0-1.3,1-2.3,2.3-2.3h2C8.8,7.4,8.8,13.8,8.8,13.8z"/>
		<circle fill="#FFE1A4" cx="5.7" cy="13.5" r="1.5"/>
		<circle fill="#FFE1A4" cx="17.5" cy="13.5" r="1.5"/>
		<path fill="#F4C37D" d="M11.7,20.6L11.7,20.6c-3.2,0-5.9-2.6-5.9-5.9v-2.7c0-1.3,1-2.3,2.3-2.3h9.5v4.9
			C17.5,18,14.9,20.6,11.7,20.6z"/>
		<circle fill="#2A5083" cx="9.3" cy="12.6" r="0.7"/>
		<circle fill="#2A5083" cx="13.8" cy="12.6" r="0.7"/>
		<g>
			<path fill="#2A5083" d="M11.7,19.2c1.3,0,2.5-1.1,2.5-2.5H9.3C9.2,18.1,10.3,19.2,11.7,19.2z"/>
		</g>
		<path fill="#FFFFFF" d="M15,17.1H8.5l0,0c0-1.1,0.9-2.1,2.1-2.1H13C14,15,15,16,15,17.1L15,17.1z"/>
		<circle fill="#F4C37D" cx="11.7" cy="15" r="1.1"/>
		<path fill="#FFFFFF" d="M17.5,9.8H6.7l0,0c0-2.5,2-4.6,4.6-4.6h7.7v3.1C18.9,9.2,18.5,9.8,17.5,9.8z"/>
	</g>
</g>
<g id="Layer_2">
</g>
</svg>
