<?xml version="1.0" encoding="utf-8"?>
<!-- Generator: Adobe Illustrator 19.0.0, SVG Export Plug-In . SVG Version: 6.00 Build 0)  -->
<svg version="1.1" id="bull" xmlns="http://www.w3.org/2000/svg" xmlns:xlink="http://www.w3.org/1999/xlink" x="0px" y="0px"
	 viewBox="0 0 24 24" enable-background="new 0 0 24 24" xml:space="preserve">
<g id="color_x5F_bg">
	<path id="XMLID_10_" fill="#7E61AA" d="M12,24L12,24C5.4,24,0,18.6,0,12l0,0C0,5.4,5.4,0,12,0l0,0c6.6,0,12,5.4,12,12l0,0
		C24,18.6,18.6,24,12,24z"/>
</g>
<g id="Layer_1_1_">
	<g>
		<path id="XMLID_9_" fill="#C9E6F3" d="M15.8,18.9H8.2c-1.4,0-2.5-1.1-2.5-2.5V6.4c0-1.1,1.2-1.6,2-1l0.5,0.4h7.5l0.5-0.4
			c0.8-0.6,2,0,2,1v10C18.2,17.8,17.1,18.9,15.8,18.9z"/>
		<path id="XMLID_8_" fill="#FCB01B" d="M10.6,15.7l0.9,0.9c0.2,0.2,0.7,0.2,0.9,0l0.9-0.9L12,13.6L10.6,15.7z"/>
		<circle id="XMLID_7_" fill="#FFFFFF" cx="8.5" cy="12.2" r="4"/>
		<circle id="XMLID_6_" fill="#FFFFFF" cx="15.5" cy="12.2" r="4"/>
		<circle id="XMLID_5_" fill="#DCF0F2" cx="8.5" cy="12.2" r="2.4"/>
		<circle id="XMLID_4_" fill="#2B5184" cx="8.5" cy="12.2" r="0.8"/>
		<circle id="XMLID_3_" fill="#DCF0F2" cx="15.5" cy="12.2" r="2.4"/>
		<circle id="XMLID_2_" fill="#2B5184" cx="15.5" cy="12.2" r="0.8"/>
		<path id="XMLID_1_" fill="#9ACEE4" d="M8.2,5.8L8.2,5.8c2.2,1.8,5.3,1.8,7.5,0l0,0H8.2z"/>
	</g>
</g>
<g id="Layer_2">
</g>
</svg>
