<?xml version="1.0" encoding="utf-8"?>
<!-- Generator: Adobe Illustrator 18.1.1, SVG Export Plug-In . SVG Version: 6.00 Build 0)  -->
<svg version="1.1" id="Layer_1" xmlns="http://www.w3.org/2000/svg" xmlns:xlink="http://www.w3.org/1999/xlink" x="0px" y="0px"
	 viewBox="0 0 24 24" enable-background="new 0 0 24 24" xml:space="preserve">
<g>
	<g id="color_x5F_bg">
		<path fill="#FFBD17" d="M12,24L12,24C5.4,24,0,18.6,0,12l0,0C0,5.4,5.4,0,12,0l0,0c6.6,0,12,5.4,12,12l0,0C24,18.6,18.6,24,12,24z
			"/>
	</g>
	<g id="Layer_1_1_">
		<g>
			<path fill="#2A5083" d="M18.4,13H5.6V6.2c0-0.4,0.3-0.7,0.7-0.7h11.3c0.4,0,0.7,0.3,0.7,0.7L18.4,13L18.4,13z"/>
			<circle fill="#A36D41" cx="17.8" cy="13" r="1.3"/>
			<circle fill="#A36D41" cx="6.2" cy="13" r="1.3"/>
			<path fill="#A36D41" d="M12,20.5L12,20.5c-3.2,0-5.8-2.6-5.8-5.8v-4.3c0-0.5,0.5-0.8,0.9-0.7c1,0.2,2.7,0.6,4.9,0.6
				s3.9-0.3,4.9-0.6c0.5-0.1,0.9,0.2,0.9,0.7v4.2C17.8,17.9,15.2,20.5,12,20.5z"/>
			<path fill="#CC8352" d="M12,16.7L12,16.7c-0.4,0-0.7-0.3-0.7-0.7v-2.9h1.5V16C12.7,16.3,12.4,16.7,12,16.7z"/>
			<path fill="#CC8352" d="M13.1,16h-2.3c-0.4,0-0.7-0.3-0.7-0.7l0,0c0-0.4,0.3-0.7,0.7-0.7h2.3c0.4,0,0.7,0.3,0.7,0.7l0,0
				C13.9,15.7,13.6,16,13.1,16z"/>
			<g>
				<circle fill="#2A5083" cx="9.1" cy="13.3" r="0.7"/>
				<circle fill="#2A5083" cx="14.9" cy="13.3" r="0.7"/>
			</g>
			<g>
				<path fill="#2A5083" d="M12,19.6c0.9,0,1.7-0.6,1.9-1.3c0.1-0.3-0.1-0.7-0.5-0.7h-2.9c-0.4,0-0.6,0.4-0.5,0.7
					C10.3,19.1,11.1,19.6,12,19.6z"/>
			</g>
		</g>
	</g>
	<g id="Layer_2">
	</g>
</g>
</svg>
