<?xml version="1.0" encoding="utf-8"?>
<!-- Generator: Adobe Illustrator 18.1.1, SVG Export Plug-In . SVG Version: 6.00 Build 0)  -->
<svg version="1.1" id="Layer_1" xmlns="http://www.w3.org/2000/svg" xmlns:xlink="http://www.w3.org/1999/xlink" x="0px" y="0px"
	 viewBox="0 0 24 24" enable-background="new 0 0 24 24" xml:space="preserve">
<g>
	<g id="color_x5F_bg">
		<path fill="#FF4E4A" d="M12,24L12,24C5.4,24,0,18.6,0,12l0,0C0,5.4,5.4,0,12,0l0,0c6.6,0,12,5.4,12,12l0,0C24,18.6,18.6,24,12,24z
			"/>
	</g>
	<g id="Layer_1_1_">
		<g>
			<path fill="#FFBD17" d="M12,4.1L12,4.1c-3.5,0-6.3,2.9-6.3,6.3v0.1h12.7v-0.1C18.4,6.9,15.5,4.1,12,4.1z"/>
			<path fill="#FFBD17" d="M19.6,11.4c-0.3-0.2-0.5-0.6-0.3-0.9s0.2-0.7,0.1-1.1c-0.1-0.7-0.8-1.2-1.6-1.2l0,0l0,0H6.2l0,0l0,0
				c-0.7,0-1.4,0.5-1.6,1.2c-0.1,0.4-0.1,0.7,0.1,1.1c0.1,0.4,0.1,0.7-0.3,0.9c-0.6,0.4-1.1,1.1-1,1.8c0.1,1.1,1,1.8,2,1.8
				c2.8,0,10.3,0,13.1,0c1.1,0,2-0.7,2-1.8C20.6,12.5,20.2,11.8,19.6,11.4z"/>
			<path fill="#FFBD17" d="M18.1,18.3H5.5c-0.5,0-0.8-0.4-0.8-0.8v-4.3h14.2v4.3C19,18,18.6,18.3,18.1,18.3z"/>
			<path fill="#FFE1A4" d="M12,20.6L12,20.6c-3.2,0-5.9-2.6-5.9-5.9V9.5h11.7v5.3C17.9,18,15.2,20.6,12,20.6z"/>
			<path fill="#FFBD17" d="M14.9,8.9H12H9.8H5.7v3.4h2.9c1.7,0,2.7-1.1,3.1-1.7c0.1-0.1,0.4-0.1,0.5,0c0.5,0.8,1.7,2.4,3.9,2.4h2.2
				V8.8L14.9,8.9L14.9,8.9L14.9,8.9z"/>
			<circle fill="#2A5083" cx="9.6" cy="14.5" r="0.7"/>
			<circle fill="#2A5083" cx="14.1" cy="14.5" r="0.7"/>
			<path fill="#2A5083" d="M12,19.2c1.1,0,1.9-0.7,2.3-1.7c0.1-0.4-0.1-0.8-0.6-0.8h-3.4c-0.5,0-0.7,0.4-0.6,0.8
				C10.1,18.5,10.9,19.2,12,19.2z"/>
			<path fill="#FF4E4A" d="M12,18c-0.6,0-1,0.4-1.3,0.8c0.4,0.3,0.8,0.4,1.3,0.4c0.5,0,0.9-0.1,1.3-0.4C13.1,18.4,12.6,18,12,18z"/>
		</g>
	</g>
	<g id="Layer_2">
	</g>
</g>
</svg>
