<?xml version="1.0" encoding="utf-8"?>
<!-- Generator: Adobe Illustrator 19.0.0, SVG Export Plug-In . SVG Version: 6.00 Build 0)  -->
<svg version="1.1" id="bull" xmlns="http://www.w3.org/2000/svg" xmlns:xlink="http://www.w3.org/1999/xlink" x="0px" y="0px"
	 viewBox="0 0 24 24" enable-background="new 0 0 24 24" xml:space="preserve">
<g id="color_x5F_bg">
	<path fill="#51C3C4" d="M12,24L12,24C5.4,24,0,18.6,0,12l0,0C0,5.4,5.4,0,12,0l0,0c6.6,0,12,5.4,12,12l0,0C24,18.6,18.6,24,12,24z"
		/>
</g>
<g id="Layer_1_1_">
	<g>
		<circle fill="#FEBD1B" cx="11.9" cy="17.6" r="3"/>
		<path fill="#E99A23" d="M17.2,8.8l-2.5-1l1-2.4c0.2-0.7,1-1,1.7-0.8l1.2,0.5c1,0.4,1.5,1.5,1.1,2.5l0,0
			C19.3,8.7,18.2,9.1,17.2,8.8z"/>
		<path fill="#E99A23" d="M7.8,8.5l1-2.4L6.5,5C5.8,4.7,5,5,4.7,5.7L4.2,6.9c-0.4,1,0,2.2,1,2.6l0,0C6.1,9.9,7.4,9.5,7.8,8.5z"/>
		<path fill="#FEBD1B" d="M5.4,14.9l1.1-7.4c0.2-1.3,1.2-2.2,2.5-2.2h6.2c1.3,0,2.3,0.9,2.5,2.2l1,7.4c0.2,1.5-1,2.9-2.5,2.9H7.9
			C6.4,17.8,5.2,16.4,5.4,14.9z"/>
		<circle fill="#2B5184" cx="15.2" cy="9" r="0.7"/>
		<circle fill="#2B5184" cx="11.9" cy="17.4" r="1.7"/>
		<circle fill="#2B5184" cx="8.9" cy="9" r="0.7"/>
		<path fill="#FFFFFF" d="M15.5,11.5l-0.8-0.6c-0.8-0.6-1.3-1.5-1.3-2.5l0,0c0-0.5,0.4-1.2,0.9-1.8c0.4-0.5,0-1.2-0.6-1.2h-3.3
			c-0.6,0-1,0.7-0.6,1.2c0.4,0.6,0.9,1.3,0.9,1.8l0,0c0,1-0.4,1.9-1.3,2.5l-0.8,0.6C8.3,11.7,8,12.1,8,12.5v3.8c0,1.1,0.8,2,1.8,2.1
			c0.8,0.1,1.4-0.3,1.8-0.9c0.1-0.2,0.5-0.2,0.6,0c0.4,0.6,1.1,1,1.8,0.9c1-0.1,1.8-1,1.8-2.1v-3.4C16,12.2,15.8,11.7,15.5,11.5z"/>
		<path fill="#2B5184" d="M13.4,16.3l-1,0.5c-0.3,0.1-0.6,0.1-0.9,0l-1-0.5c-0.3-0.2-0.5-0.5-0.5-0.9V15c0-0.5,0.5-1,1-1H13
			c0.5,0,1,0.4,1,1v0.4C14,15.8,13.8,16.1,13.4,16.3z"/>
	</g>
</g>
<g id="Layer_2">
</g>
</svg>
