<?xml version="1.0" encoding="utf-8"?>
<!-- Generator: Adobe Illustrator 19.0.0, SVG Export Plug-In . SVG Version: 6.00 Build 0)  -->
<svg version="1.1" id="bull" xmlns="http://www.w3.org/2000/svg" xmlns:xlink="http://www.w3.org/1999/xlink" x="0px" y="0px"
	 viewBox="0 0 24 24" enable-background="new 0 0 24 24" xml:space="preserve">
<g id="color_x5F_bg">
	<path id="XMLID_9_" fill="#FEBD1B" d="M12,24L12,24C5.4,24,0,18.6,0,12l0,0C0,5.4,5.4,0,12,0l0,0c6.6,0,12,5.4,12,12l0,0
		C24,18.6,18.6,24,12,24z"/>
</g>
<g id="Layer_1_1_">
	<g>
		<path id="XMLID_8_" fill="#2B5184" d="M17.9,9.1c-0.4-3-3-5.3-6.1-5.3c-3,0-5.5,2.2-6.1,5.1C5,9.8,4.1,11.6,4.1,15v1.7
			c0,0.5,0.4,0.8,0.8,0.8H19c0.4,0,0.8-0.4,0.8-0.8V15C19.9,12.3,18.8,10.3,17.9,9.1z"/>
		<path id="XMLID_7_" fill="#A36E41" d="M13.7,8.7C13,9.6,11,11.2,7,11.4c-0.3,0-0.5,0.2-0.5,0.5v3.2c0,2.9,2.3,5.2,5.2,5.2l0,0
			c2.9,0,5.2-2.3,5.2-5.2v-3.2c0-0.2-0.1-0.4-0.4-0.5c-1.3-0.3-2.2-1.7-2.5-2.6C14.1,8.5,13.8,8.5,13.7,8.7z"/>
		<path id="XMLID_6_" fill="#CC8352" d="M12.2,15.2h-0.8c-0.4,0-0.7-0.4-0.5-0.8l0.5-0.6c0.2-0.3,0.6-0.3,0.8,0l0.4,0.6
			C12.9,14.8,12.7,15.2,12.2,15.2z"/>
		<g>
			<path id="XMLID_5_" fill="#2B5184" d="M11.9,18.7c0.9,0,1.7-0.6,2-1.4c0.2-0.4-0.2-0.7-0.5-0.7h-2.9c-0.4,0-0.7,0.4-0.5,0.7
				C10.1,18.1,10.9,18.7,11.9,18.7z"/>
		</g>
		<g>
			<circle id="XMLID_4_" fill="#2B5184" cx="9.5" cy="13.2" r="0.6"/>
			<circle id="XMLID_3_" fill="#2B5184" cx="14.1" cy="13.2" r="0.6"/>
		</g>
		<circle id="XMLID_2_" fill="#A36E41" cx="17" cy="13.6" r="1.2"/>
		<circle id="XMLID_1_" fill="#A36E41" cx="6.6" cy="13.6" r="1.2"/>
	</g>
</g>
<g id="Layer_2">
</g>
</svg>
