<?xml version="1.0" encoding="utf-8"?>
<!-- Generator: Adobe Illustrator 18.1.1, SVG Export Plug-In . SVG Version: 6.00 Build 0)  -->
<svg version="1.1" id="Layer_1" xmlns="http://www.w3.org/2000/svg" xmlns:xlink="http://www.w3.org/1999/xlink" x="0px" y="0px"
	 viewBox="0 0 24 24" enable-background="new 0 0 24 24" xml:space="preserve">
<g>
	<g id="color_x5F_bg">
		<path fill="#895ECC" d="M12,24L12,24C5.4,24,0,18.6,0,12l0,0C0,5.4,5.4,0,12,0l0,0c6.6,0,12,5.4,12,12l0,0C24,18.6,18.6,24,12,24z
			"/>
	</g>
	<circle fill="#F4C37D" cx="5.9" cy="12" r="1.2"/>
	<circle fill="#F4C37D" cx="18.1" cy="12" r="1.2"/>
	<path fill="#FFE1A4" d="M12,19.9L12,19.9c-3.4,0-6.1-2.7-6.1-6.1V9.2H18v4.6C18.1,17.2,15.4,19.9,12,19.9z"/>
	<circle fill="#2A5083" cx="9.3" cy="11.6" r="0.6"/>
	<path fill="#FFFFFF" d="M16.9,13.3c0,1.1-0.9,1.9-1.9,1.9H9.1c-1.1,0-1.9-0.9-1.9-1.9V9.2H5.9v4.6c0,3.4,2.7,6.1,6.1,6.1l0,0l0,0
		c3.4,0,6.1-2.7,6.1-6.1V9.2h-1.2V13.3z"/>
	<path fill="#2A5083" d="M17.9,5.7c-3-0.3-2.6-1.6-5.9-1.6S9.1,5.4,6.1,5.7C5.2,5.8,4.7,6.7,5,7.6C5.2,8,5.5,8.2,5.7,8.3
		c0.1,0.1,0.2,0.2,0.2,0.4v0.5h12.1V8.7c0-0.1,0.1-0.3,0.2-0.4C18.5,8.2,18.7,8,19,7.6C19.3,6.7,18.8,5.9,17.9,5.7z"/>
	<path fill="#2A5083" d="M14.9,12.8L14.9,12.8c-0.8,0-1.5-0.7-1.5-1.5v-0.2c0-0.4,0.3-0.7,0.7-0.7h1.7c0.4,0,0.7,0.3,0.7,0.7v0.2
		C16.4,12.1,15.7,12.8,14.9,12.8z"/>
	<path fill="#F4C37D" d="M13.3,13.6h-0.5V9.2h-1.6v4.3h-0.5c-0.5,0-0.8,0.4-0.8,0.8c0,0.5,0.4,0.8,0.8,0.8h0.5v0.1
		c0,0.5,0.4,0.8,0.8,0.8c0.4,0,0.8-0.4,0.8-0.8v-0.1h0.5c0.4,0,0.7-0.3,0.8-0.8C14.2,13.9,13.8,13.6,13.3,13.6z"/>
	<path fill="#2A5083" d="M12.5,16.9c-0.2-0.1-0.6-0.1-0.8,0s-0.6,0.3-1,0.4v0.1c0,0.7,0.6,1.4,1.4,1.4c0.8,0,1.4-0.6,1.4-1.4
		c0-0.1,0-0.1,0-0.1C13.1,17.3,12.7,17.1,12.5,16.9z"/>
	<g id="Layer_2">
	</g>
</g>
</svg>
