<?xml version="1.0" encoding="utf-8"?>
<!-- Generator: Adobe Illustrator 18.1.1, SVG Export Plug-In . SVG Version: 6.00 Build 0)  -->
<svg version="1.1" id="Layer_1" xmlns="http://www.w3.org/2000/svg" xmlns:xlink="http://www.w3.org/1999/xlink" x="0px" y="0px"
	 viewBox="0 0 24 24" enable-background="new 0 0 24 24" xml:space="preserve">
<g>
	<g id="color_x5F_bg">
		<path fill="#59AFE1" d="M12,24L12,24C5.4,24,0,18.6,0,12l0,0C0,5.4,5.4,0,12,0l0,0c6.6,0,12,5.4,12,12l0,0C24,18.6,18.6,24,12,24z
			"/>
	</g>
	<circle fill="#FFE1A4" cx="6.2" cy="12.1" r="1.5"/>
	<circle fill="#FFE1A4" cx="17.8" cy="12.1" r="1.5"/>
	<g>
		<rect x="6.2" y="8.2" fill="#FFE1A4" width="11.8" height="8.7"/>
		<path fill="#E89920" d="M18.5,16.3c0-0.5-0.2-0.9-0.5-1.2V9.9l0,0c-0.8,0-1.5,0.7-1.5,1.5v2.4c0,0.5-0.3,0.7-0.7,0.7h-4h-1H8.4
			c-0.5,0-0.7-0.3-0.7-0.7v-2.4c0-0.8-0.7-1.5-1.5-1.5l0,0v4.9c-0.5,0.3-0.7,0.8-0.7,1.3c0,0.8,0.6,1.5,1.4,1.7v0.1
			c0,1.2,1,2.2,2.2,2.2c0.2,0,0.5-0.1,0.7-0.1c0.4,0.7,1.1,1.3,2,1.3c0.9,0,1.6-0.5,1.9-1.2c0.3,0.2,0.7,0.3,1.1,0.3
			c1.1,0,2-0.9,2-2c0-0.1,0-0.2,0-0.3C17.7,18.1,18.5,17.3,18.5,16.3z"/>
	</g>
	<path fill="#2A5083" d="M12,17.6c0.7,0,1.2-0.5,1.4-1.1c0.1-0.2-0.1-0.5-0.4-0.5h-2.1c-0.2,0-0.5,0.2-0.4,0.5
		C10.8,17.3,11.3,17.6,12,17.6z"/>
	<circle fill="#FFE1A4" cx="12" cy="14" r="1.2"/>
	<circle fill="#2A5083" cx="9.9" cy="12.6" r="0.6"/>
	<circle fill="#2A5083" cx="14.1" cy="12.6" r="0.6"/>
	<path fill="#FF4E4A" d="M17.5,9H6.5V8.2c0-3,2.5-5.5,5.5-5.5l0,0c3,0,5.5,2.5,5.5,5.5V9z"/>
	<path fill="#F44542" d="M17.9,9H6.1C5.7,9,5.3,8.6,5.3,8.2l0,0c0-0.5,0.4-0.8,0.8-0.8h11.6c0.5,0,0.8,0.4,0.8,0.8l0,0
		C18.6,8.7,18.3,9,17.9,9z"/>
	<g id="Layer_2">
	</g>
</g>
</svg>
