<?xml version="1.0" encoding="utf-8"?>
<!-- Generator: Adobe Illustrator 19.0.0, SVG Export Plug-In . SVG Version: 6.00 Build 0)  -->
<svg version="1.1" id="bull" xmlns="http://www.w3.org/2000/svg" xmlns:xlink="http://www.w3.org/1999/xlink" x="0px" y="0px"
	 viewBox="0 0 24 24" enable-background="new 0 0 24 24" xml:space="preserve">
<g id="color_x5F_bg">
	<path id="XMLID_15_" fill="#F0524F" d="M12,24L12,24C5.4,24,0,18.6,0,12l0,0C0,5.4,5.4,0,12,0l0,0c6.6,0,12,5.4,12,12l0,0
		C24,18.6,18.6,24,12,24z"/>
</g>
<g id="Layer_1_1_">
	<g>
		<path id="XMLID_14_" fill="#FEBD1B" d="M12,4.1L12,4.1c-3.5,0-6.3,2.9-6.3,6.3v0.2h12.7v-0.2C18.4,6.9,15.5,4.1,12,4.1z"/>
		<circle id="XMLID_13_" fill="#FEBD1B" cx="6.5" cy="10.3" r="2.5"/>
		<circle id="XMLID_12_" fill="#FEBD1B" cx="6.2" cy="13" r="2.1"/>
		<circle id="XMLID_11_" fill="#FEBD1B" cx="16.9" cy="10.7" r="3"/>
		<circle id="XMLID_10_" fill="#FEBD1B" cx="17.2" cy="13" r="2.5"/>
		<circle id="XMLID_9_" fill="#FEBD1B" cx="7" cy="7.1" r="2"/>
		<circle id="XMLID_8_" fill="#FEBD1B" cx="5.4" cy="9.5" r="2.5"/>
		<path id="XMLID_7_" fill="#FFE1A4" d="M12,20.6L12,20.6c-3.2,0-5.9-2.6-5.9-5.8V9.5h10.2c0.8,0,1.5,0.7,1.5,1.5v3.8
			C17.8,18,15.2,20.6,12,20.6z"/>
		<circle id="XMLID_6_" fill="#2B5184" cx="9.6" cy="14.5" r="0.7"/>
		<circle id="XMLID_5_" fill="#2B5184" cx="14.1" cy="14.5" r="0.7"/>
		<g>
			<path id="XMLID_4_" fill="#2B5184" d="M12,19.2c1,0,2-0.7,2.3-1.7c0.1-0.4-0.2-0.8-0.6-0.8h-3.4c-0.4,0-0.8,0.4-0.6,0.8
				C10,18.5,11,19.2,12,19.2z"/>
		</g>
		<circle id="XMLID_3_" fill="#FEBD1B" cx="6.9" cy="9.7" r="1.8"/>
		<path id="XMLID_2_" fill="#FEBD1B" d="M14.5,13.1l-0.8-0.2c-0.2-0.1-0.4-0.3-0.3-0.5l0,0c0.1-0.2,0.3-0.4,0.5-0.3l0.8,0.2
			c0.2,0.1,0.4,0.3,0.3,0.5l0,0C15.1,13.1,14.8,13.2,14.5,13.1z"/>
		<path id="XMLID_1_" fill="#FEBD1B" d="M10.2,12.9l-0.8,0.3c-0.2,0.1-0.5,0-0.6-0.2l0,0c-0.1-0.2,0-0.4,0.2-0.6l0.8-0.3
			c0.2-0.1,0.4,0,0.6,0.2l0,0C10.5,12.5,10.4,12.8,10.2,12.9z"/>
	</g>
</g>
<g id="Layer_2">
</g>
</svg>
