<?xml version="1.0" encoding="utf-8"?>
<!-- Generator: Adobe Illustrator 19.0.0, SVG Export Plug-In . SVG Version: 6.00 Build 0)  -->
<svg version="1.1" id="bull" xmlns="http://www.w3.org/2000/svg" xmlns:xlink="http://www.w3.org/1999/xlink" x="0px" y="0px"
	 viewBox="0 0 24 24" enable-background="new 0 0 24 24" xml:space="preserve">
<path fill="#FEBD1B" d="M12,24L12,24C5.4,24,0,18.6,0,12l0,0C0,5.4,5.4,0,12,0l0,0c6.6,0,12,5.4,12,12l0,0C24,18.6,18.6,24,12,24z"
	/>
<path fill="#46A3D2" d="M19.2,9.6H4.8c-0.5,0-0.9-0.4-0.9-0.9l0,0c0-0.5,0.4-0.9,0.9-0.9h14.4c0.5,0,0.9,0.4,0.9,0.9l0,0
	C20.1,9.2,19.7,9.6,19.2,9.6z"/>
<path fill="#59AEE0" d="M12.7,20.3h-1.5c-1.2,0-2.2-1-2.2-2.2l0,0h5.9l0,0C14.9,19.3,13.9,20.3,12.7,20.3z"/>
<path fill="#D5EFF7" d="M15.7,6.5H8.3c-0.1,0-0.3,0-0.4-0.1l-1.3-1c-0.5-0.3-1.1,0-1.1,0.5v1.9h12.9V5.9c0-0.5-0.6-0.8-1.1-0.5
	L16,6.5C16,6.5,15.8,6.5,15.7,6.5z"/>
<path fill="#59AEE0" d="M15.2,18.1H8.8c-1.8,0-3.2-1.4-3.2-3.2V7.8h12.9v7.1C18.5,16.7,17,18.1,15.2,18.1z"/>
<rect x="10.1" y="6.5" fill="#3773B1" width="3.8" height="10.7"/>
<path fill="#2B5184" d="M13.7,14.6c-0.7,0.1-1.2,0.9-1.2,1.7l0,0c0,0.1-0.1,0.2-0.2,0.2h-0.5c-0.1,0-0.2-0.1-0.2-0.2l0,0
	c0-0.7-0.5-1.5-1.2-1.7c-1.1-0.2-2,0.5-2,1.6v0.7c0,0.6,0.4,1.2,1,1.4c0.5,0.2,1.4,0.4,2.7,0.4s2.2-0.1,2.7-0.4c0.6-0.2,1-0.8,1-1.4
	v-0.7C15.7,15.2,14.8,14.4,13.7,14.6z"/>
<circle fill="#2B5184" cx="8" cy="12.2" r="0.7"/>
<path fill="#3773B1" d="M8.5,10.9H7.4c-0.3,0-0.5-0.2-0.5-0.5l0,0c0-0.3,0.2-0.5,0.5-0.5h1.1c0.3,0,0.5,0.2,0.5,0.5l0,0
	C9.1,10.7,8.9,10.9,8.5,10.9z"/>
<circle fill="#2B5184" cx="16.3" cy="12.2" r="0.7"/>
<path fill="#3773B1" d="M16.9,10.9h-1.1c-0.3,0-0.5-0.2-0.5-0.5l0,0c0-0.3,0.2-0.5,0.5-0.5h1.1c0.3,0,0.5,0.2,0.5,0.5l0,0
	C17.4,10.7,17.2,10.9,16.9,10.9z"/>
</svg>
