<?xml version="1.0" encoding="utf-8"?>
<!-- Generator: Adobe Illustrator 19.0.0, SVG Export Plug-In . SVG Version: 6.00 Build 0)  -->
<svg version="1.1" id="bull" xmlns="http://www.w3.org/2000/svg" xmlns:xlink="http://www.w3.org/1999/xlink" x="0px" y="0px"
	 viewBox="0 0 24 24" enable-background="new 0 0 24 24" xml:space="preserve">
<g id="color_x5F_bg">
	<path fill="#59AEE0" d="M12,24L12,24C5.4,24,0,18.6,0,12l0,0C0,5.4,5.4,0,12,0l0,0c6.6,0,12,5.4,12,12l0,0C24,18.6,18.6,24,12,24z"
		/>
</g>
<g id="Layer_1_1_">
	<g>
		<path fill="#FEBD1B" d="M15.5,6.5H8.2C8.1,6.5,8,6.4,7.8,6.3L5.4,4.6c-0.5-0.4-1.2,0-1.2,0.7v8.3c0,3.2,2.6,5.8,5.8,5.8h3.9
			c3.2,0,5.9-2.6,5.9-5.8V5.2c0-0.6-0.7-1-1.2-0.7L16,6.3C15.8,6.5,15.7,6.5,15.5,6.5z"/>
		<circle fill="#2B5184" cx="9.4" cy="10.7" r="0.7"/>
		<circle fill="#2B5184" cx="14.6" cy="10.7" r="0.7"/>
		<circle fill="#2B5184" cx="12" cy="15.6" r="2"/>
		<path fill="#FFFFFF" d="M12,12.3H9.6c-1.2,0-2.2,1-2.2,2.2l0,0c0,1.2,0.5,2.4,2.2,2.4s1.9-2,2.4-2c0.5,0,0.8,2,2.4,2
			s2.2-1.2,2.2-2.4l0,0c0-1.2-1-2.2-2.2-2.2H12z"/>
		<path fill="#F0524F" d="M10.7,12.3l0.8,1.1c0.2,0.4,0.8,0.4,1.1,0l0.8-1.1H10.7z"/>
		<path fill="#E99A23" d="M12,8.7c1.3,0,2.2-1.1,2.2-2.3H9.8C9.8,7.7,10.7,8.7,12,8.7z"/>
	</g>
</g>
<g id="Layer_2">
</g>
</svg>
